# Blender v2.77 (sub 0) OBJ File: 'submarine.blend'
# www.blender.org
mtllib submarine_control_oxy.mtl
o control_oxy_Sphere.012
v 0.704672 -0.311464 0.129507
v 0.663824 -0.267431 0.256908
v 0.778421 -0.277100 0.147381
v 0.792069 -0.322482 0.016481
v 0.669517 -0.189123 0.400500
v 0.733218 -0.228231 0.288003
v 0.716452 -0.350638 0.016460
v 0.605521 -0.231785 0.360077
v 0.772325 -0.259811 0.139452
v 0.785974 -0.305194 0.008552
v 0.663421 -0.171835 0.392571
v 0.727123 -0.210943 0.280074
v 0.710356 -0.333350 0.008531
v 0.698576 -0.294176 0.121578
v 0.657728 -0.250143 0.248979
v 0.599426 -0.214497 0.352148
vn 0.138800 -0.372000 -0.917800
vn -0.837600 -0.442300 -0.320500
vn -0.328200 0.881400 -0.339700
vn -0.307800 0.864100 -0.398300
vn -0.278300 0.847800 -0.451300
vn 0.907100 0.391200 0.155600
vn 0.945100 0.326500 -0.014700
vn -0.597700 0.150400 0.787500
vn 0.837600 0.442300 0.320500
vn -0.945100 -0.326500 0.014700
vn -0.907100 -0.391200 -0.155600
usemtl Material.002
s off
f 4//1 7//1 13//1 10//1
f 2//2 8//2 16//2 15//2
f 10//3 13//3 14//3 9//3
f 9//4 14//4 15//4 12//4
f 12//5 15//5 16//5 11//5
f 6//6 3//6 9//6 12//6
f 3//7 4//7 10//7 9//7
f 8//8 5//8 11//8 16//8
f 5//9 6//9 12//9 11//9
f 7//10 1//10 14//10 13//10
f 1//11 2//11 15//11 14//11
