# Blender v2.77 (sub 0) OBJ File: 'submarine.blend'
# www.blender.org
mtllib submarine_control_3.mtl
o control_3_Sphere.016
v -0.724978 -0.223383 0.301940
v -0.669439 -0.189353 0.400117
v -0.514174 -0.292859 0.302042
v -0.552457 -0.316316 0.234369
v -0.663710 -0.169974 0.389433
v -0.719249 -0.204004 0.291256
v -0.508445 -0.273480 0.291358
v -0.546728 -0.296937 0.223685
vn -0.841700 0.429300 0.327400
vn 0.841700 -0.429300 -0.327400
vn 0.279500 0.847200 -0.451800
vn -0.486000 -0.307400 -0.818100
vn 0.624000 0.227700 0.747500
usemtl Material.002
s off
f 1//1 2//1 5//1 6//1
f 3//2 4//2 8//2 7//2
f 6//3 5//3 7//3 8//3
f 4//4 1//4 6//4 8//4
f 2//5 3//5 7//5 5//5
