# Blender v2.77 (sub 0) OBJ File: 'submarine.blend'
# www.blender.org
mtllib submarine_control_1.mtl
o control_1_Sphere.014
v -0.456266 -0.115679 0.612111
v -0.351947 -0.236726 0.464544
v -0.414721 -0.253598 0.415868
v -0.547495 -0.140199 0.541371
v -0.541766 -0.120820 0.530686
v -0.450538 -0.096300 0.601427
v -0.408992 -0.234219 0.405183
v -0.346218 -0.217346 0.453860
vn 0.607700 -0.513600 -0.605700
vn 0.194900 0.821400 -0.536000
vn -0.607700 0.513600 0.605700
vn 0.835800 0.054200 0.546400
vn -0.741400 -0.142400 -0.655800
usemtl Material.002
s off
f 2//1 3//1 7//1 8//1
f 6//2 8//2 7//2 5//2
f 4//3 1//3 6//3 5//3
f 1//4 2//4 8//4 6//4
f 3//5 4//5 5//5 7//5
