# Blender v2.77 (sub 0) OBJ File: 'submarine.blend'
# www.blender.org
mtllib submarine_joystick_L.mtl
o joystick_L_Sphere.007
v 0.096389 -0.312528 0.721027
v 0.119048 -0.093258 0.724272
v 0.068787 -0.312528 0.721027
v 0.084958 -0.093258 0.724272
v 0.096389 -0.312528 0.693425
v 0.119048 -0.093258 0.690181
v 0.068787 -0.312528 0.693425
v 0.084958 -0.093258 0.690181
vn 0.000000 -0.014800 0.999900
vn -0.997300 0.073500 0.000000
vn 0.000000 -0.014800 -0.999900
vn 0.994700 -0.102800 0.000000
vn 0.000000 -1.000000 0.000000
vn 0.000000 1.000000 0.000000
usemtl Material.002
s off
f 2//1 4//1 3//1 1//1
f 4//2 8//2 7//2 3//2
f 8//3 6//3 5//3 7//3
f 6//4 2//4 1//4 5//4
f 1//5 3//5 7//5 5//5
f 6//6 8//6 4//6 2//6
