# Blender v2.77 (sub 0) OBJ File: 'submarine.blend'
# www.blender.org
mtllib submarine_control_health.mtl
o control_health_Sphere.009
v 0.681778 -0.363549 0.016451
v 0.606160 -0.391704 0.016430
v 0.596499 -0.359578 0.109146
v 0.561928 -0.322320 0.216999
v 0.513818 -0.292919 0.302151
v 0.577813 -0.250257 0.342574
v 0.670248 -0.325213 0.127021
v 0.631322 -0.283120 0.248094
v 0.675683 -0.346261 0.008522
v 0.600065 -0.374416 0.008501
v 0.590404 -0.342289 0.101217
v 0.555832 -0.305032 0.209070
v 0.507722 -0.275631 0.294222
v 0.664153 -0.307924 0.119092
v 0.625227 -0.265832 0.240165
v 0.571717 -0.232969 0.334645
vn -0.837600 -0.442300 -0.320500
vn 0.837600 0.442300 0.320500
vn -0.907100 -0.391200 -0.155600
vn 0.907100 0.391200 0.155600
vn -0.278300 0.847800 -0.451300
vn -0.307800 0.864100 -0.398300
vn -0.328200 0.881400 -0.339700
vn -0.597700 0.150400 0.787500
vn 0.138800 -0.372000 -0.917800
vn 0.945100 0.326500 -0.014700
vn -0.945100 -0.326500 0.014700
usemtl Material.002
s off
f 4//1 5//1 13//1 12//1
f 6//2 8//2 15//2 16//2
f 3//3 4//3 12//3 11//3
f 8//4 7//4 14//4 15//4
f 15//5 12//5 13//5 16//5
f 14//6 11//6 12//6 15//6
f 9//7 10//7 11//7 14//7
f 5//8 6//8 16//8 13//8
f 1//9 2//9 10//9 9//9
f 7//10 1//10 9//10 14//10
f 2//11 3//11 11//11 10//11
