# Blender v2.77 (sub 0) OBJ File: 'submarine.blend'
# www.blender.org
mtllib submarine_control_rear.mtl
o control_rear_Sphere.006
v 0.189230 0.456842 0.740473
v 0.096469 0.484980 0.740473
v 0.240874 0.581522 0.629721
v -0.000000 0.494481 0.740473
v 0.122797 0.617339 0.629722
v -0.096469 0.484980 0.740473
v -0.000000 0.629434 0.629722
v -0.189230 0.456842 0.740473
v -0.122798 0.617339 0.629722
v -0.240875 0.581522 0.629721
vn -0.123800 -0.622200 -0.773000
vn -0.184700 -0.608800 -0.771500
vn 0.000000 -0.634400 -0.773000
vn 0.123800 -0.622200 -0.773000
vn 0.184700 -0.608800 -0.771500
usemtl Material.002
s 1
f 2//1 5//1 3//2 1//2
f 4//3 7//3 5//1 2//1
f 6//4 9//4 7//3 4//3
f 8//5 10//5 9//4 6//4
