# Blender v2.77 (sub 0) OBJ File: 'submarine.blend'
# www.blender.org
mtllib submarine_control_radar.mtl
o control_radar_Sphere.010
v 0.324616 -0.221395 0.456359
v 0.328235 -0.238992 0.468119
v 0.290649 -0.210117 0.483688
v 0.294268 -0.227714 0.495448
v 0.270203 -0.190816 0.518863
v 0.273822 -0.208413 0.530622
v 0.266390 -0.166430 0.556527
v 0.270009 -0.184027 0.568287
v 0.279790 -0.140672 0.590947
v 0.283409 -0.158269 0.602707
v 0.308364 -0.117463 0.616883
v 0.311983 -0.135060 0.628643
v 0.347761 -0.100336 0.630386
v 0.351380 -0.117933 0.642146
v 0.391984 -0.091900 0.629401
v 0.395603 -0.109497 0.641161
v 0.434300 -0.093437 0.614077
v 0.437919 -0.111034 0.625837
v 0.468266 -0.104715 0.586748
v 0.471886 -0.122312 0.598508
v 0.488713 -0.124015 0.551574
v 0.492332 -0.141612 0.563333
v 0.492526 -0.148401 0.513909
v 0.496145 -0.165998 0.525669
v 0.479126 -0.174159 0.479489
v 0.482745 -0.191756 0.491249
v 0.450552 -0.197369 0.453553
v 0.454171 -0.214966 0.465313
v 0.411154 -0.214495 0.440050
v 0.414774 -0.232092 0.451810
v 0.366932 -0.222932 0.441035
v 0.370551 -0.240529 0.452795
vn -0.634500 -0.515400 -0.576000
vn -0.874900 -0.380300 -0.299900
vn -0.982000 -0.187400 0.021900
vn -0.939700 0.034100 0.340300
vn -0.754300 0.250400 0.606900
vn -0.454000 0.428600 0.781100
vn -0.084700 0.541500 0.836400
vn 0.297600 0.572000 0.764400
vn 0.634500 0.515400 0.576000
vn 0.874900 0.380300 0.299900
vn 0.982000 0.187400 -0.021900
vn 0.939700 -0.034100 -0.340300
vn 0.754300 -0.250400 -0.606900
vn 0.454000 -0.428600 -0.781100
vn 0.168600 -0.819500 0.547700
vn 0.084700 -0.541500 -0.836400
vn -0.297600 -0.572000 -0.764400
vn -0.168600 0.819500 -0.547700
usemtl Material.002
s off
f 1//1 2//1 4//1 3//1
f 3//2 4//2 6//2 5//2
f 5//3 6//3 8//3 7//3
f 7//4 8//4 10//4 9//4
f 9//5 10//5 12//5 11//5
f 11//6 12//6 14//6 13//6
f 13//7 14//7 16//7 15//7
f 15//8 16//8 18//8 17//8
f 17//9 18//9 20//9 19//9
f 19//10 20//10 22//10 21//10
f 21//11 22//11 24//11 23//11
f 23//12 24//12 26//12 25//12
f 25//13 26//13 28//13 27//13
f 27//14 28//14 30//14 29//14
f 4//15 2//15 32//15 30//15 28//15 26//15 24//15 22//15 20//15 18//15 16//15 14//15 12//15 10//15 8//15 6//15
f 29//16 30//16 32//16 31//16
f 31//17 32//17 2//17 1//17
f 1//18 3//18 5//18 7//18 9//18 11//18 13//18 15//18 17//18 19//18 21//18 23//18 25//18 27//18 29//18 31//18
